<svg xmlns="http://www.w3.org/2000/svg" width="144px" height="250px" viewBox="0 0 144 250" version="1.1"><g id="bg_cubes_blue" stroke="none" stroke-width="1" fill="none" fill-rule="evenodd"><path d="M74.9846349,210 L146,251.42563 L146,336.741037 L73,294.157704 L0,336.741037 L5.55111512e-17,251.42563 L71.0153651,210 L5.55111512e-17,168.57437 L2.26563926e-18,86.741037 L5.55111512e-17,1.42562967 L72,-40.5743703 L72,-41.741037 L73,-41.1577037 L74,-41.741037 L74,-40.5743703 L146,1.42562967 L146,86.741037 L146,168.57437 L74.9846349,210 Z M73,125.842296 L143.015365,85 L73,44.1577037 L2.98463486,85 L73,125.842296 Z M72,127.57437 L2,86.741037 L2,167.42563 L72,208.258963 L72,127.57437 Z M72,211.741037 L2,252.57437 L2,333.258963 L72,292.42563 L72,211.741037 Z M72,-38.258963 L2,2.57437033 L2,83.258963 L72,42.4256297 L72,-38.258963 Z M144,83.258963 L144,2.57437033 L74,-38.258963 L74,42.4256297 L144,83.258963 Z M144,333.258963 L144,252.57437 L74,211.741037 L74,292.42563 L144,333.258963 Z M144,167.42563 L144,86.741037 L74,127.57437 L74,208.258963 L144,167.42563 Z" id="Combined-Shape" fill="#720d66" fill-rule="nonzero"></path></g></svg>